<svg width="82" height="31" viewBox="0 0 82 31" fill="none" xmlns="http://www.w3.org/2000/svg">
<g clip-path="url(#clip0_28044_14)">
<path d="M42.8205 8.90715C42.8205 9.82092 42.0844 10.557 41.1706 10.557C40.2568 10.557 39.5207 9.82092 39.5207 8.90715C39.5207 7.99338 40.2315 7.25728 41.1706 7.25728C42.1098 7.28267 42.8205 8.01876 42.8205 8.90715ZM36.018 12.2323C36.018 12.3846 36.018 12.6384 36.018 12.6384C36.018 12.6384 35.2311 11.6231 33.5559 11.6231C30.7892 11.6231 28.6316 13.7298 28.6316 16.6488C28.6316 19.5424 30.7638 21.6746 33.5559 21.6746C35.2565 21.6746 36.018 20.6339 36.018 20.6339V21.0654C36.018 21.2684 36.1702 21.4207 36.3733 21.4207H38.4293V11.8769C38.4293 11.8769 36.551 11.8769 36.3733 11.8769C36.1702 11.8769 36.018 12.0546 36.018 12.2323ZM36.018 18.3494C35.6372 18.9079 34.8757 19.3901 33.962 19.3901C32.3375 19.3901 31.0937 18.3748 31.0937 16.6488C31.0937 14.9228 32.3375 13.9075 33.962 13.9075C34.8504 13.9075 35.6626 14.4152 36.018 14.9482V18.3494ZM39.9522 11.8769H42.389V21.4207H39.9522V11.8769ZM76.3508 11.6231C74.6755 11.6231 73.8887 12.6384 73.8887 12.6384V7.28267H71.452V21.4207C71.452 21.4207 73.3303 21.4207 73.5079 21.4207C73.711 21.4207 73.8633 21.2431 73.8633 21.0654V20.6339C73.8633 20.6339 74.6502 21.6746 76.3254 21.6746C79.0921 21.6746 81.2496 19.5424 81.2496 16.6488C81.2496 13.7552 79.0921 11.6231 76.3508 11.6231ZM75.9447 19.3647C75.0055 19.3647 74.2694 18.8825 73.8887 18.3241V14.9228C74.2694 14.4152 75.0817 13.8821 75.9447 13.8821C77.5691 13.8821 78.8129 14.8974 78.8129 16.6234C78.8129 18.3494 77.5691 19.3647 75.9447 19.3647ZM70.1828 15.7604V21.4461H67.7461V16.0396C67.7461 14.4659 67.2385 13.8314 65.8678 13.8314C65.1317 13.8314 64.3702 14.2121 63.888 14.7705V21.4207H61.4512V11.8769H63.3803C63.5834 11.8769 63.7357 12.0546 63.7357 12.2323V12.6384C64.4464 11.9023 65.3855 11.6231 66.3247 11.6231C67.3907 11.6231 68.2791 11.9277 68.9898 12.5368C69.8529 13.2476 70.1828 14.1613 70.1828 15.7604ZM55.5371 11.6231C53.8619 11.6231 53.075 12.6384 53.075 12.6384V7.28267H50.6383V21.4207C50.6383 21.4207 52.5166 21.4207 52.6943 21.4207C52.8973 21.4207 53.0496 21.2431 53.0496 21.0654V20.6339C53.0496 20.6339 53.8365 21.6746 55.5117 21.6746C58.2784 21.6746 60.4359 19.5424 60.4359 16.6488C60.4613 13.7552 58.3038 11.6231 55.5371 11.6231ZM55.131 19.3647C54.1918 19.3647 53.4557 18.8825 53.075 18.3241V14.9228C53.4557 14.4152 54.268 13.8821 55.131 13.8821C56.7555 13.8821 57.9992 14.8974 57.9992 16.6234C57.9992 18.3494 56.7555 19.3647 55.131 19.3647ZM48.5315 11.6231C49.2676 11.6231 49.6484 11.75 49.6484 11.75V14.009C49.6484 14.009 47.6178 13.3237 46.3486 14.7705V21.4461H43.9119V11.8769C43.9119 11.8769 45.7902 11.8769 45.9679 11.8769C46.171 11.8769 46.3233 12.0546 46.3233 12.2323V12.6384C46.7801 12.1053 47.7701 11.6231 48.5315 11.6231ZM23.2252 20.5577C23.0983 20.2531 22.9713 19.9232 22.8444 19.644C22.6414 19.1871 22.4383 18.7556 22.2606 18.3494L22.2352 18.3241C20.4839 14.5167 18.6055 10.6585 16.6257 6.85116L16.5496 6.69887C16.3465 6.31813 16.1434 5.91201 15.9404 5.50589C15.6866 5.049 15.4327 4.56673 15.0266 4.10985C14.2144 3.09455 13.0468 2.53613 11.803 2.53613C10.5339 2.53613 9.3917 3.09455 8.55407 4.05908C8.17333 4.51597 7.89413 4.99824 7.6403 5.45512C7.43724 5.86124 7.23418 6.26736 7.03112 6.6481L6.95497 6.8004C5.00052 10.6078 3.09683 14.4659 1.34544 18.2733L1.32005 18.3241C1.14238 18.7302 0.939315 19.1617 0.736255 19.6186C0.609343 19.8978 0.48243 20.2024 0.355517 20.5323C0.0255446 21.4715 -0.0759855 22.3599 0.0509271 23.2737C0.330135 25.1773 1.59926 26.7764 3.35065 27.4872C4.0106 27.7664 4.69593 27.8933 5.40664 27.8933C5.6097 27.8933 5.86352 27.8679 6.06658 27.8425C6.90421 27.741 7.76721 27.4618 8.60484 26.9795C9.64552 26.3957 10.6354 25.5581 11.7523 24.3397C12.8691 25.5581 13.8844 26.3957 14.8997 26.9795C15.7373 27.4618 16.6003 27.741 17.438 27.8425C17.641 27.8679 17.8948 27.8933 18.0979 27.8933C18.8086 27.8933 19.5193 27.7664 20.1539 27.4872C21.9307 26.7764 23.1744 25.152 23.4536 23.2737C23.6567 22.3853 23.5551 21.4969 23.2252 20.5577ZM11.7777 21.8776C10.407 20.1516 9.51861 18.5271 9.21402 17.1565C9.0871 16.5727 9.06172 16.065 9.13787 15.6081C9.18863 15.202 9.34093 14.8467 9.54399 14.5421C10.0263 13.8567 10.8385 13.4252 11.7777 13.4252C12.7168 13.4252 13.5544 13.8314 14.0113 14.5421C14.2144 14.8467 14.3667 15.202 14.4174 15.6081C14.4936 16.065 14.4682 16.5981 14.3413 17.1565C14.0367 18.5017 13.1483 20.1262 11.7777 21.8776ZM21.9053 23.0706C21.7276 24.3905 20.8392 25.5327 19.5955 26.0403C18.9863 26.2942 18.3263 26.3703 17.6664 26.2942C17.0318 26.218 16.3973 26.015 15.7373 25.6342C14.8236 25.1266 13.9098 24.3397 12.8437 23.1721C14.519 21.1161 15.5343 19.2378 15.915 17.5626C16.0927 16.7757 16.1181 16.065 16.0419 15.4051C15.9404 14.7705 15.7119 14.1867 15.3566 13.6791C14.5697 12.5368 13.2498 11.8769 11.7777 11.8769C10.3055 11.8769 8.98557 12.5622 8.19872 13.6791C7.84336 14.1867 7.61492 14.7705 7.51339 15.4051C7.41186 16.065 7.43724 16.8011 7.6403 17.5626C8.02104 19.2378 9.06172 21.1415 10.7116 23.1975C9.6709 24.3651 8.73175 25.152 7.81798 25.6596C7.15803 26.0403 6.52347 26.2434 5.88891 26.3196C5.20358 26.3957 4.54363 26.2942 3.95984 26.0657C2.71609 25.5581 1.8277 24.4159 1.65003 23.096C1.57388 22.4614 1.62464 21.8269 1.87847 21.1161C1.95462 20.8623 2.08153 20.6085 2.20844 20.3039C2.38612 19.8978 2.58918 19.4663 2.79224 19.0348L2.81762 18.984C4.56902 15.202 6.44732 11.3439 8.40178 7.58726L8.47792 7.43496C8.68098 7.05422 8.88404 6.6481 9.0871 6.26736C9.29016 5.86124 9.51861 5.48051 9.79781 5.15053C10.3308 4.54135 11.0416 4.21138 11.8284 4.21138C12.6153 4.21138 13.326 4.54135 13.859 5.15053C14.1382 5.48051 14.3667 5.86124 14.5697 6.26736C14.7728 6.6481 14.9758 7.05422 15.1789 7.43496L15.2551 7.58726C17.1841 11.3693 19.0624 15.2274 20.8138 19.0094V19.0348C21.0169 19.4409 21.1946 19.8978 21.3976 20.3039C21.5245 20.6085 21.6514 20.8623 21.7276 21.1161C21.9307 21.7761 22.0068 22.4107 21.9053 23.0706Z" fill="#FF5A5F"/>
</g>
<defs>
<clipPath id="clip0_28044_14">
<rect width="81.1429" height="30.4286" fill="white"/>
</clipPath>
</defs>
</svg>
