<svg width="82" height="31" viewBox="0 0 82 31" fill="none" xmlns="http://www.w3.org/2000/svg">
<g clip-path="url(#clip0_28044_246)">
<path d="M80.9924 14.9758V12.0634C80.486 12.0862 78.9668 12.3186 78.2943 13.2256V12.264H75.4584V21.9672H78.2943V17.3822C78.6994 15.2219 80.5346 14.994 81.0005 14.9758H80.9924ZM55.5911 15.0897C55.2868 14.7835 54.9389 14.537 54.5621 14.3605C54.2517 14.1903 53.9107 14.103 53.5655 14.1052C53.3097 14.1024 53.0566 14.1631 52.8241 14.283C52.7182 14.3314 52.6284 14.4158 52.5673 14.5246C52.5063 14.6333 52.4771 14.7608 52.4838 14.8892C52.481 15.0193 52.5158 15.147 52.583 15.253C52.6502 15.3591 52.7462 15.4377 52.8565 15.4771C53.2523 15.6419 53.6586 15.7729 54.0719 15.8691C54.4085 15.9511 54.739 16.0624 55.0604 16.2018C55.3836 16.3404 55.6867 16.5324 55.9598 16.7715C56.2262 17.0072 56.4468 17.302 56.6079 17.6374C56.7777 18.0124 56.8612 18.4292 56.851 18.8498C56.8688 19.3634 56.7658 19.8732 56.5524 20.3278C56.339 20.7823 56.0228 21.1654 55.6356 21.4385C55.2644 21.7093 54.8526 21.9023 54.4203 22.0082C53.985 22.1257 53.5391 22.1854 53.0915 22.186C52.3822 22.186 51.6776 22.0567 51.0051 21.8031C50.3666 21.5797 49.7828 21.1928 49.2995 20.6728L50.7012 18.6994C51.0429 19.0504 51.4311 19.3395 51.8518 19.5562C52.22 19.7645 52.6267 19.8723 53.0388 19.8707C53.2793 19.8679 53.5161 19.804 53.7316 19.6838C53.8411 19.6266 53.9323 19.533 53.9932 19.4157C54.054 19.2984 54.0815 19.1629 54.0719 19.0275C54.0733 18.8832 54.0352 18.7419 53.9627 18.6228C53.8903 18.5037 53.7869 18.4127 53.6667 18.3621C53.2442 18.1643 52.8061 18.0117 52.3582 17.9063C52.0484 17.8245 51.7439 17.7195 51.4467 17.5918C51.1539 17.4639 50.8805 17.2856 50.6364 17.0632C50.4032 16.8393 50.2107 16.567 50.0692 16.261C49.9111 15.8951 49.8333 15.4919 49.8424 15.0851C49.8291 14.5591 49.944 14.039 50.1746 13.5811C50.3916 13.169 50.6895 12.8183 51.0456 12.5556C51.3993 12.289 51.7913 12.0932 52.2042 11.9768C52.6196 11.8545 53.047 11.7917 53.4763 11.79C54.1258 11.7892 54.7713 11.9046 55.3885 12.1318C55.9778 12.3389 56.5189 12.6907 56.9726 13.1618L55.5911 15.0897ZM72.189 15.8554C72.1856 15.4087 72.0422 14.9778 71.7839 14.6385C71.6172 14.4467 71.415 14.2986 71.1916 14.2049C70.9682 14.1111 70.7292 14.074 70.4916 14.0961C70.2333 14.0937 69.9768 14.1431 69.734 14.242C69.5134 14.3327 69.309 14.467 69.1303 14.6385C68.9638 14.806 68.8265 15.007 68.7252 15.231C68.6352 15.4254 68.5789 15.6373 68.5591 15.8554H72.189ZM74.8021 17.1725V17.5599C74.8084 17.6829 74.8084 17.8062 74.8021 17.9291H68.547C68.5651 18.1896 68.6388 18.4412 68.7617 18.6629C68.8837 18.8854 69.0417 19.0802 69.2276 19.2372C69.4218 19.4005 69.6379 19.5282 69.8677 19.6154C70.1036 19.7066 70.3515 19.7528 70.6009 19.7522C70.9966 19.7651 71.389 19.6681 71.7434 19.4696C72.0416 19.294 72.3007 19.0447 72.501 18.7404L74.4739 20.1396C74.0628 20.7992 73.5037 21.3244 72.8534 21.6618C72.1358 22.0252 71.3553 22.2043 70.5685 22.186C69.944 22.19 69.3234 22.0744 68.7333 21.8441C68.1762 21.6307 67.6625 21.2945 67.2222 20.8551C66.7847 20.4106 66.4378 19.8649 66.2053 19.2554C65.9464 18.5699 65.8194 17.8306 65.8326 17.0859C65.8243 16.3505 65.9469 15.6206 66.1932 14.9393C66.4202 14.3277 66.7551 13.7742 67.1776 13.3122C67.6025 12.8607 68.1022 12.5076 68.6482 12.2731C69.2367 12.021 69.862 11.8958 70.4916 11.9039C71.0887 11.8976 71.6813 12.0198 72.2376 12.264C72.755 12.4935 73.2211 12.8483 73.6029 13.3031C73.9954 13.7785 74.2985 14.3381 74.4942 14.9484C74.7158 15.6598 74.8241 16.4097 74.8142 17.1634L74.8021 17.1725ZM40.6379 14.8937V11.9632H38.2072V9.78915C38.1464 8.5358 37.6198 7.60148 35.4686 7.60148V18.8908C35.4666 19.3431 35.5184 19.7938 35.6225 20.2307C35.7143 20.6146 35.8803 20.971 36.1087 21.2744C36.3531 21.5767 36.6609 21.8054 37.004 21.9398C37.4832 22.1114 37.9839 22.1945 38.4867 22.186C39.2192 22.196 39.9475 22.0603 40.6379 21.7849V19.187C40.1771 19.3199 39.7038 19.3903 39.2281 19.3967C39.08 19.4173 38.9296 19.3988 38.789 19.3426C38.6483 19.2864 38.5213 19.1942 38.4179 19.0731C38.2558 18.7772 38.1834 18.4302 38.2113 18.0841V14.8937H40.6379Z" fill="#008FB4"/>
<path d="M63.3858 16.7898L66.5862 12.2321H63.1994L60.3635 16.2611V9.88039C60.3109 8.56779 59.8044 7.60156 57.6208 7.60156V21.9673H60.3635V17.3276L63.6045 21.9673H67.0278L63.3858 16.7898ZM48.8175 21.9582V15.5319C48.8175 12.7654 46.8648 11.7718 45.1349 11.7718C43.7728 11.6953 42.4329 12.1816 41.3672 13.1391L42.7973 15.1354C43.3732 14.5664 44.0928 14.2142 44.8554 14.1281C45.8965 14.1281 46.1112 14.7981 46.1112 15.6549V15.819H45.1754C42.769 15.819 41.3227 16.9903 41.3227 19.0777C41.3227 21.3565 43.1052 21.949 45.2767 21.949L48.8175 21.9582ZM46.1112 19.9391H45.2119C44.511 19.9391 44.0816 19.611 44.0816 18.9319C44.0816 18.2528 44.511 17.8608 45.3699 17.8608H46.1112V19.9391ZM25.4783 9.36537C25.4783 9.83679 25.6447 10.2889 25.941 10.6222C26.2373 10.9556 26.6392 11.1429 27.0583 11.1429C27.4773 11.1429 27.8792 10.9556 28.1755 10.6222C28.4718 10.2889 28.6382 9.83679 28.6382 9.36537C28.6382 8.89396 28.4718 8.44185 28.1755 8.1085C27.8792 7.77516 27.4773 7.58789 27.0583 7.58789C26.6392 7.58789 26.2373 7.77516 25.941 8.1085C25.6447 8.44185 25.4783 8.89396 25.4783 9.36537ZM25.7457 11.986H25.6282V21.9673H28.4843V14.0871C28.4033 12.8748 27.8523 11.986 25.7457 11.986ZM34.8407 14.9758V12.0635C34.3383 12.0863 32.8151 12.3187 32.1426 13.2257V12.264H29.3067V21.9673H32.1426V17.4598C32.1406 17.434 32.1406 17.4081 32.1426 17.3823C32.5477 15.222 34.3788 14.9941 34.8488 14.9758H34.8407ZM80.17 20.5043H80.0121V20.8415H80.17C80.1904 20.8428 80.2108 20.8393 80.2299 20.8314C80.249 20.8235 80.2665 20.8113 80.2813 20.7955C80.2961 20.7797 80.3079 20.7607 80.3159 20.7396C80.324 20.7185 80.3281 20.6958 80.328 20.6729C80.3281 20.65 80.324 20.6273 80.3159 20.6062C80.3079 20.5851 80.2961 20.5661 80.2813 20.5503C80.2665 20.5345 80.249 20.5223 80.2299 20.5144C80.2108 20.5065 80.1904 20.503 80.17 20.5043ZM80.328 21.4386L80.1336 20.9828H80.0121V21.4386H79.8338V20.3311H80.2146C80.255 20.3298 80.2952 20.3378 80.3328 20.3545C80.3704 20.3712 80.4046 20.3962 80.4333 20.4282C80.4621 20.4601 80.4848 20.4982 80.5001 20.5403C80.5155 20.5823 80.5231 20.6275 80.5225 20.6729C80.523 20.7392 80.5049 20.804 80.4707 20.8581C80.4365 20.9121 80.388 20.9526 80.3321 20.9737L80.5468 21.4295L80.328 21.4386ZM80.1417 20.0713C79.9937 20.0631 79.847 20.105 79.7204 20.1915C79.5937 20.278 79.4931 20.4052 79.4313 20.5567C79.3696 20.7082 79.3496 20.877 79.3739 21.0414C79.3983 21.2058 79.4659 21.3583 79.5679 21.479C79.67 21.5998 79.8019 21.6834 79.9467 21.7191C80.0914 21.7547 80.2423 21.7408 80.3799 21.679C80.5175 21.6173 80.6355 21.5106 80.7187 21.3727C80.8019 21.2348 80.8464 21.072 80.8466 20.9053C80.8493 20.7984 80.8332 20.692 80.7992 20.5921C80.7651 20.4922 80.7139 20.4009 80.6484 20.3233C80.5829 20.2458 80.5044 20.1837 80.4174 20.1404C80.3305 20.0971 80.2368 20.0737 80.1417 20.0713ZM80.1417 21.9308C79.961 21.9371 79.7827 21.8828 79.6295 21.7748C79.4763 21.6669 79.3551 21.5101 79.2814 21.3244C79.2076 21.1388 79.1845 20.9326 79.2151 20.7322C79.2457 20.5317 79.3286 20.3461 79.4533 20.1988C79.5779 20.0515 79.7387 19.9492 79.9151 19.9049C80.0916 19.8607 80.2757 19.8764 80.4442 19.9502C80.6126 20.024 80.7578 20.1525 80.8612 20.3193C80.9646 20.4861 81.0216 20.6838 81.0249 20.8871C81.0281 21.1547 80.937 21.4128 80.7715 21.605C80.606 21.7972 80.3795 21.9078 80.1417 21.9126V21.9308ZM17.6553 16.3386L18.9234 12.2367L20.1914 16.3386H17.6553ZM20.2562 7.60156H17.708L13.7742 19.2965H12.2267C11.1716 19.3468 10.1261 19.0523 9.21658 18.4488C8.85406 18.1871 8.55986 17.8217 8.36411 17.3901C8.16835 16.9584 8.07806 16.476 8.10249 15.9922V14.6249H6.8466C5.67842 14.5889 4.55974 14.0864 3.69068 13.2075C3.01172 12.4063 2.58481 11.3769 2.47531 10.2769H11.2787C12.8789 10.2769 13.4704 11.1565 13.839 11.945C14.0202 12.3405 14.1563 12.76 14.2442 13.1938L15.3583 9.88039C15.3583 9.88039 14.4265 7.60156 11.2787 7.60156H0V8.96886C0 11.5485 0.680609 13.6177 2.02562 15.1035C3.08143 16.2275 4.4171 16.9621 5.85405 17.2091C6.36045 20.1351 8.75069 21.9582 12.2267 21.9582H15.8404L16.6506 19.3238H21.1758L21.9861 21.9536H25.0772L20.2562 7.60156Z" fill="#008FB4"/>
</g>
<defs>
<clipPath id="clip0_28044_246">
<rect width="81.1429" height="30.4286" fill="white"/>
</clipPath>
</defs>
</svg>
